<svg xmlns="http://www.w3.org/2000/svg" width="24" height="24" viewBox="0 0 24 24">
  <path fill="#979797" d="M12.4705882,11.5294118 L12.4705882,4.47058824 L12.4705882,4.47058824 C12.4705882,4.21068953 12.2598987,4 12,4 C11.7401013,4 11.5294118,4.21068953 11.5294118,4.47058824 L11.5294118,4.47058824 L11.5294118,11.5294118 L4.47058824,11.5294118 L4.47058824,11.5294118 C4.21068953,11.5294118 4,11.7401013 4,12 C4,12.2598987 4.21068953,12.4705882 4.47058824,12.4705882 L4.47058824,12.4705882 L11.5294118,12.4705882 L11.5294118,19.5294118 C11.5294118,19.7893105 11.7401013,20 12,20 C12.2598987,20 12.4705882,19.7893105 12.4705882,19.5294118 L12.4705882,12.4705882 L19.5294118,12.4705882 C19.7893105,12.4705882 20,12.2598987 20,12 C20,11.7401013 19.7893105,11.5294118 19.5294118,11.5294118 L12.4705882,11.5294118 Z" transform="rotate(45 12 12)"/>
</svg>
