<?xml version="1.0" encoding="UTF-8"?>
<svg width="20px" height="20px" viewBox="0 0 20 20" version="1.1" xmlns="http://www.w3.org/2000/svg" xmlns:xlink="http://www.w3.org/1999/xlink">
    <!-- Generator: Sketch 40.3 (33839) - http://www.bohemiancoding.com/sketch -->
    <title>Loading</title>
    <desc>Created with Sketch.</desc>
    <defs></defs>
    <g id="zhiren_icon" stroke="none" stroke-width="1" fill="none" fill-rule="evenodd">
        <g id="Main" fill="#4A4A4A">
            <rect id="Path" opacity="0.5" x="9" y="0" width="2" height="6" rx="1"></rect>
            <rect id="Path" opacity="0.600000024" transform="translate(14.828427, 4.828427) rotate(45.000000) translate(-14.828427, -4.828427) " x="13.8284271" y="1.82842712" width="2" height="6" rx="1"></rect>
            <rect id="Path" opacity="0.400000006" transform="translate(4.828427, 4.828427) scale(-1, 1) rotate(45.000000) translate(-4.828427, -4.828427) " x="3.82842712" y="1.82842712" width="2" height="6" rx="1"></rect>
            <rect id="Path" opacity="0.200000003" transform="translate(4.828427, 14.828427) rotate(45.000000) translate(-4.828427, -14.828427) " x="3.82842712" y="11.8284271" width="2" height="6" rx="1"></rect>
            <rect id="Rectangle-24" opacity="0.300000012" x="0" y="9" width="6" height="2" rx="1"></rect>
            <rect id="Rectangle-24" opacity="0.699999988" x="14" y="9" width="6" height="2" rx="1"></rect>
            <rect id="Rectangle-24" opacity="0.05" transform="translate(14.828427, 14.828427) rotate(45.000000) translate(-14.828427, -14.828427) " x="11.8284271" y="13.8284271" width="6" height="2" rx="1"></rect>
            <rect id="Combined-Shape" opacity="0.100000001" x="9" y="14" width="2" height="6" rx="1"></rect>
        </g>
    </g>
</svg>
