<?xml version="1.0" encoding="UTF-8"?>
<svg width="24px" height="24px" viewBox="0 0 24 24" version="1.1" xmlns="http://www.w3.org/2000/svg" xmlns:xlink="http://www.w3.org/1999/xlink">
    <!-- Generator: Sketch 40.3 (33839) - http://www.bohemiancoding.com/sketch -->
    <title>Arrow_Down</title>
    <desc>Created with Sketch.</desc>
    <defs></defs>
    <g id="zhiren_icon" stroke="none" stroke-width="1" fill="none" fill-rule="evenodd">
        <g id="Main" transform="translate(12.000000, 12.000000) scale(-1, 1) rotate(90.000000) translate(-12.000000, -12.000000) translate(6.000000, 0.000000)" fill="#9B9B9B">
            <path d="M11.6164511,11.610417 L1.05810978,1.05207572 C0.867040921,0.861006859 0.548815536,0.859363964 0.353553391,1.05462611 C0.164001817,1.24417768 0.157149396,1.5653289 0.351003,1.7591825 L10.6032963,12.0114758 L0.351003,22.2637691 C0.15993414,22.4548379 0.158291245,22.7730633 0.353553391,22.9683255 C0.543104964,23.157877 0.864256177,23.1647294 1.05810978,22.9708758 L11.6156318,12.4133538 C11.6336098,12.3997323 11.6508692,12.3847273 11.6672619,12.3683346 C11.7368142,12.2987823 11.7817682,12.2115117 11.8012344,12.119313 C11.8373259,11.9580366 11.7933395,11.7806946 11.6672619,11.654617 C11.6512157,11.6385707 11.6342264,11.6238338 11.6164511,11.610417 Z" id="Arrow_Down" transform="translate(6.010408, 12.010938) scale(1, -1) translate(-6.010408, -12.010938) "></path>
        </g>
    </g>
</svg>
