<?xml version="1.0" encoding="UTF-8"?>
<svg width="24px" height="24px" viewBox="0 0 24 24" version="1.1" xmlns="http://www.w3.org/2000/svg" xmlns:xlink="http://www.w3.org/1999/xlink">
    <!-- Generator: Sketch 40.3 (33839) - http://www.bohemiancoding.com/sketch -->
    <title>Close</title>
    <desc>Created with Sketch.</desc>
    <defs></defs>
    <g id="zhiren_icon" stroke="none" stroke-width="1" fill="none" fill-rule="evenodd">
        <g id="Main" transform="translate(3.000000, 3.000000)" fill="#9B9B9B">
            <path d="M8.83832409,8.13223866 L1.06053975,0.354454322 C0.863250778,0.157165345 0.548022825,0.158062608 0.353042717,0.353042717 C0.163764932,0.542320501 0.158694605,0.864780038 0.354454322,1.06053975 L8.13223866,8.83832409 L0.354454322,16.6161084 C0.157165345,16.8133974 0.158062608,17.1286254 0.353042717,17.3236055 C0.542320501,17.5128832 0.864780038,17.5179536 1.06053975,17.3221939 L8.83832409,9.54440952 L16.6161084,17.3221939 C16.8133974,17.5194828 17.1286254,17.5185856 17.3236055,17.3236055 C17.5128832,17.1343277 17.5179536,16.8118681 17.3221939,16.6161084 L9.54440952,8.83832409 L17.3221939,1.06053975 C17.5194828,0.863250778 17.5185856,0.548022825 17.3236055,0.353042717 C17.1343277,0.163764932 16.8118681,0.158694605 16.6161084,0.354454322 L8.83832409,8.13223866 Z" id="Close"></path>
        </g>
    </g>
</svg>